<svg width="450" height="450" viewBox="0 0 450 450" fill="none" xmlns="http://www.w3.org/2000/svg">
<path fill-rule="evenodd" clip-rule="evenodd" d="M375 0C388.807 0 400 11.1929 400 25V224.991C430.361 247.796 450 284.105 450 325C450 394.036 394.036 450 325 450C284.105 450 247.796 430.361 224.991 400H25C11.1929 400 0 388.807 0 375V25C0 11.1929 11.1929 0 25 0H375ZM210.401 375C204.089 360.552 200.428 344.68 200.035 328C200.012 328.997 200 329.997 200 331C200 335.733 200.263 340.404 200.775 345H80C66.1929 345 55 333.807 55 320V80C55 66.1929 66.1929 55 80 55H320C333.807 55 345 66.1929 345 80V201.591C355.494 203.279 365.552 206.273 375 210.401V50C375 36.1929 363.807 25 350 25H50C36.1929 25 25 36.1929 25 50V350C25 363.807 36.1929 375 50 375H210.401ZM203.3 132.179L292.164 204.357C242.157 217.936 204.607 261.777 200.394 315H110C102.022 315 94.9172 311.263 90.3398 305.444L106.263 313.945L203.3 132.179ZM315 110V195.851L206.654 107.85L196.769 99.8208L190.772 111.055L181.559 128.311L133.119 85H290C303.807 85 315 96.1929 315 110ZM116.921 85H110C96.1929 85 85 96.1929 85 110V150.821L115.748 87.4183L116.921 85ZM85 198.947V290C85 294.636 86.2619 298.977 88.4611 302.699L171.38 147.38L128.571 109.103L85 198.947ZM425 325C425 380.228 380.228 425 325 425C269.772 425 225 380.228 225 325C225 269.772 269.772 225 325 225C376.077 225 418.21 263.294 424.256 312.738C423.221 308.026 419.022 304.5 414 304.5C401.384 304.5 373.711 304.228 342.797 303.868C342.626 274.318 342.5 248.173 342.5 236H321.5C321.5 248.164 321.625 274.186 321.795 303.616C290.365 303.231 258.336 302.799 237.148 302.501L236.852 323.499C258.09 323.798 290.315 324.232 321.919 324.62C322.118 357.282 322.345 391.065 322.5 413.074C322.541 418.873 327.275 423.541 333.074 423.5C338.873 423.459 343.541 418.725 343.5 412.926C343.345 390.983 343.119 357.388 342.921 324.871C373.753 325.229 401.347 325.5 414 325.5C419.799 325.5 424.5 320.799 424.5 315L424.5 314.935C424.831 318.245 425 321.603 425 325Z" fill="black"/>
</svg>
